<?xml version="1.0" encoding="UTF-8" standalone="no"?>
<!-- Created with Inkscape (http://www.inkscape.org/) -->

<svg
   width="109.17419mm"
   height="21.864641mm"
   viewBox="0 0 109.17419 21.864641"
   version="1.1"
   id="svg5"
   xmlns="http://www.w3.org/2000/svg"
   xmlns:svg="http://www.w3.org/2000/svg">
  <defs
     id="defs2" />
  <g
     id="layer1"
     transform="translate(-46.733792,-31.962041)">
    <g
       aria-label="MARZIALE"
       id="text9122"
       style="font-size:28.2223px;font-family:'relationship of mélodrame';-inkscape-font-specification:'relationship of mélodrame';text-align:center;text-anchor:middle;fill:#ffffff;stroke:#000000;stroke-miterlimit:0;stroke-opacity:0">
      <path
         d="M 55.375108,51.520452 53.822881,36.534411 50.323316,51.210007 q -0.197556,0.818446 0.254001,1.298226 0.451556,0.479779 1.241781,0.479779 l -0.08467,0.338667 H 47.21886 l 0.08467,-0.338667 q 0.903113,0 1.495782,-0.395113 0.592668,-0.423334 0.818446,-1.382892 L 52.242432,40.20331 q 0.254001,-1.128892 0.508002,-2.257784 0.282223,-1.128892 0.564446,-2.257784 0.197556,-0.818447 -0.254001,-1.298226 -0.423335,-0.479779 -1.241781,-0.479779 l 0.08467,-0.338667 h 3.527787 q 0.197556,1.72156 0.36689,3.612454 0.197556,1.890894 0.395112,3.838233 0.197556,1.947338 0.36689,3.866455 0.197556,1.890894 0.395112,3.640676 l 8.01513,-14.957818 h 3.753566 l -0.08467,0.338667 q -1.072447,0 -1.608671,0.479779 -0.536223,0.479779 -0.762002,1.46756 l -3.668899,15.352931 q -0.197556,0.818446 0.254001,1.298226 0.451557,0.479779 1.241781,0.479779 l -0.08467,0.338667 H 58.22556 l 0.08467,-0.338667 q 0.903113,0 1.495782,-0.395113 0.592668,-0.423334 0.818446,-1.382892 l 3.55601,-14.957819 -8.0998,15.268264 z"
         id="path9991" />
      <path
         d="m 72.618924,53.326679 0.08467,-0.338667 q 0.846669,0 1.495782,-0.395113 0.677335,-0.423334 0.762002,-1.382892 l 0.225779,-3.048009 h -5.842016 q -0.423335,0.790225 -0.846669,1.580449 -0.423335,0.762002 -0.874892,1.524004 -0.479779,0.931336 -0.08467,1.326448 0.395113,0.395113 1.241782,0.395113 l -0.05644,0.338667 h -4.797791 l 0.08467,-0.338667 q 1.016003,0 1.665116,-0.395113 0.649113,-0.423334 1.213559,-1.382892 l 0.592668,-1.044225 7.450687,-13.37737 q 0.112889,-0.225779 0.254001,-0.451557 0.141111,-0.254001 0.225778,-0.479779 0.112889,-0.254001 0.112889,-0.479779 0,-0.225779 -0.169334,-0.36689 0.620891,0 1.46756,-0.592668 0.874891,-0.620891 1.580449,-2.257784 l -1.46756,19.050052 q -0.08467,0.874891 0.451557,1.326448 0.564446,0.451557 1.382893,0.451557 l -0.08467,0.338667 z m 2.624674,-5.842016 0.874892,-11.430031 -6.37824,11.430031 z"
         id="path9993" />
      <path
         d="m 78.489111,53.326679 0.08467,-0.338667 q 0.903114,0 1.495782,-0.395113 0.592668,-0.423334 0.818447,-1.382892 l 3.527787,-14.84493 0.169334,-0.677335 q 0.197556,-0.818447 -0.254001,-1.298226 -0.423334,-0.479779 -1.241781,-0.479779 l 0.08467,-0.338667 h 4.938903 q 0.225778,0 0.395112,0 0.197556,0 0.36689,0.02822 1.636893,0.05644 2.70934,0.62089 1.10067,0.536224 1.665116,1.382893 0.564446,0.846669 0.620891,1.890894 0.05644,1.044225 -0.36689,2.060228 -0.395112,1.016003 -1.241781,1.919116 -0.846669,0.903114 -2.088451,1.495782 -0.36689,0.169334 -0.762002,0.310446 -0.395112,0.141111 -0.818446,0.225778 0.508001,0.338668 0.762002,0.931336 0.254,0.592668 0.395112,1.35467 0.141111,0.762002 0.197556,1.608671 0.05644,0.846669 0.169334,1.693338 0.112889,0.818447 0.310445,1.580449 0.225778,0.73378 0.677335,1.298226 0.338668,0.423334 0.818447,0.73378 0.508001,0.282223 1.241781,0.282223 l -0.08467,0.338667 H 89.495811 Q 88.98781,52.818676 88.705587,52.197785 88.423364,51.548672 88.282252,50.871337 88.141141,50.194002 88.056474,49.488444 88.000034,48.754665 87.915362,48.049107 87.830692,47.230661 87.689584,46.496881 87.576695,45.734879 87.294472,45.14221 87.040471,44.549542 86.588914,44.182652 86.137358,43.78754 85.4318,43.674651 l 0.08467,-0.310446 q 1.495782,0.08467 2.652896,-0.479779 1.157114,-0.592668 1.919116,-1.495781 0.790225,-0.931336 1.157115,-2.032006 0.36689,-1.128892 0.225778,-2.144895 -0.112889,-1.016003 -0.762002,-1.778005 -0.649113,-0.790224 -1.862672,-1.044225 -0.479779,-0.112889 -0.98778,-0.112889 -0.479779,-0.02822 -0.959558,-0.02822 l -4.035789,16.961602 q -0.197556,0.818446 0.254,1.298226 0.451557,0.479779 1.241782,0.479779 l -0.08467,0.338667 z"
         id="path9995" />
      <path
         d="m 108.7998,33.57107 -0.0847,0.338667 q -0.11289,0.02822 -0.254,0.08467 -0.14111,0.05644 -0.33866,0.310445 L 94.462872,52.649344 h 4.374457 q 2.427121,0 3.810011,-1.326448 1.41111,-1.326448 2.20134,-3.894677 h 0.33867 q -0.0282,0.169333 -0.16934,0.649113 -0.14111,0.451556 -0.31044,1.072447 -0.14111,0.592668 -0.31045,1.270003 -0.14111,0.677336 -0.22578,1.241782 -0.0564,0.564446 -0.0282,0.931335 0.0564,0.36689 0.28222,0.395113 l -0.0847,0.338667 H 91.640642 L 105.86468,34.248405 h -3.72534 q -1.52401,0 -2.568232,0.508001 -1.016002,0.479779 -1.72156,1.270004 -0.677335,0.790224 -1.100669,1.806227 -0.423335,1.016003 -0.73378,2.08845 h -0.36689 q 0.08467,-0.310445 0.254001,-0.846669 0.169333,-0.536224 0.338667,-1.185337 0.169334,-0.677335 0.310445,-1.35467 0.169334,-0.677335 0.225779,-1.241781 0.05644,-0.592668 -0.02822,-0.959558 -0.08467,-0.36689 -0.36689,-0.423335 l 0.08467,-0.338667 z"
         id="path9997" />
      <path
         d="m 105.13086,53.326679 0.0847,-0.338667 q 0.90311,0 1.49578,-0.395113 0.59267,-0.423334 0.81845,-1.382892 l 3.52778,-14.84493 0.16934,-0.677335 q 0.19755,-0.818447 -0.254,-1.298226 -0.42334,-0.479779 -1.24178,-0.479779 l 0.0847,-0.338667 h 5.78557 l -0.0847,0.338667 q -1.04423,0 -1.58045,0.479779 -0.53622,0.479779 -0.762,1.46756 l -3.6689,15.352931 q -0.19756,0.818446 0.254,1.298226 0.45156,0.479779 1.24178,0.479779 l -0.0847,0.338667 z"
         id="path9999" />
      <path
         d="m 119.49598,53.326679 0.0847,-0.338667 q 0.84667,0 1.49578,-0.395113 0.67734,-0.423334 0.762,-1.382892 l 0.22578,-3.048009 h -5.84201 q -0.42334,0.790225 -0.84667,1.580449 -0.42334,0.762002 -0.87489,1.524004 -0.47978,0.931336 -0.0847,1.326448 0.39511,0.395113 1.24178,0.395113 l -0.0564,0.338667 h -4.7978 l 0.0847,-0.338667 q 1.016,0 1.66512,-0.395113 0.64911,-0.423334 1.21356,-1.382892 l 0.59266,-1.044225 7.45069,-13.37737 q 0.11289,-0.225779 0.254,-0.451557 0.14111,-0.254001 0.22578,-0.479779 0.11289,-0.254001 0.11289,-0.479779 0,-0.225779 -0.16933,-0.36689 0.62089,0 1.46756,-0.592668 0.87489,-0.620891 1.58044,-2.257784 l -1.46756,19.050052 q -0.0847,0.874891 0.45156,1.326448 0.56445,0.451557 1.38289,0.451557 l -0.0847,0.338667 z m 2.62468,-5.842016 0.87489,-11.430031 -6.37824,11.430031 z"
         id="path10001" />
      <path
         d="m 128.01907,50.194004 q 0.87489,-3.640677 1.72156,-7.253131 0.87489,-3.612454 1.72156,-7.253131 0.19755,-0.818447 -0.254,-1.298226 -0.42334,-0.479779 -1.21356,-0.479779 l 0.0564,-0.338667 h 5.8138 l -0.0847,0.338667 q -1.04423,0 -1.60867,0.479779 -0.53622,0.479779 -0.762,1.46756 l -3.81001,16.086711 -0.16934,0.705557 h 2.82223 q 2.42712,0 3.81001,-1.326448 1.3829,-1.326448 2.17312,-3.894677 h 0.36689 q -0.0282,0.169333 -0.16933,0.649113 -0.14112,0.451556 -0.31045,1.072447 -0.16933,0.592668 -0.31044,1.270003 -0.14112,0.677336 -0.22578,1.241782 -0.0565,0.564446 -0.0282,0.931335 0.0282,0.36689 0.25401,0.395113 l -0.0847,0.338667 H 125.3661 l 0.0847,-0.338667 q 0.90311,0 1.49578,-0.395113 0.62089,-0.423334 0.84667,-1.382892 0.0564,-0.254001 0.11289,-0.508002 0.0564,-0.254 0.11289,-0.508001 z"
         id="path10003" />
      <path
         d="m 138.60237,53.326679 0.0847,-0.338667 q 0.90311,0 1.49578,-0.395113 0.62089,-0.423334 0.84667,-1.382892 l 3.49956,-14.84493 0.16934,-0.677335 q 0.22577,-0.818447 -0.254,-1.298226 -0.45156,-0.479779 -1.24179,-0.479779 l 0.0847,-0.338667 h 12.13559 l -0.0847,0.338667 q -0.28222,0.02822 -0.56444,0.423335 -0.254,0.36689 -0.508,0.959558 -0.22578,0.564446 -0.42334,1.241781 -0.19755,0.677335 -0.36689,1.35467 -0.16933,0.649113 -0.28222,1.213559 -0.11289,0.536224 -0.19756,0.818447 h -0.33867 q 0.25401,-1.185337 0.25401,-2.229562 0,-1.044225 -0.36689,-1.806227 -0.33867,-0.762002 -1.10067,-1.185336 -0.76201,-0.451557 -2.03201,-0.451557 h -2.3989 l -1.60867,6.773352 h 1.60867 q 0.50801,0 1.04423,-0.02822 0.53622,-0.05644 0.98778,-0.225778 0.47978,-0.197556 0.81845,-0.564446 0.33866,-0.36689 0.45155,-0.987781 h 0.33867 l -1.524,6.350018 h -0.33867 q 0.16933,-0.790225 0.19756,-1.495782 0.0564,-0.705558 -0.16934,-1.213559 -0.19755,-0.536224 -0.73378,-0.846669 -0.53622,-0.310445 -1.49578,-0.310445 h -1.32645 l -2.42712,10.244695 -0.16933,0.705557 h 2.82223 q 2.42712,0 3.81001,-1.326448 1.38289,-1.326448 2.17312,-3.894677 h 0.36689 q -0.0282,0.169333 -0.16934,0.649113 -0.14111,0.451556 -0.31044,1.072447 -0.16933,0.592668 -0.31045,1.270003 -0.14111,0.677336 -0.22577,1.241782 -0.0565,0.564446 -0.0282,0.931335 0.0282,0.36689 0.254,0.395113 l -0.0847,0.338667 h -4.51557 -4.37446 -1.74978 q -0.79022,-0.02822 -1.72156,0 z"
         id="path10005" />
    </g>
  </g>
</svg>
